<svg xmlns="http://www.w3.org/2000/svg" viewBox="0 0 615.98 126.42"><defs><style>.cls-1{fill:#fd0;}.cls-2{fill:#231f20;}</style></defs><g id="Layer_2" data-name="Layer 2"><g id="Layer_1-2" data-name="Layer 1"><path class="cls-1" d="M598.71,20.47l.57.9,8.55-8.56-4.66-4.65-8.55,8.55.9.57A10.55,10.55,0,0,1,598.71,20.47Z"/><path class="cls-1" d="M611.35,22.72H599.84l.23,1a10.3,10.3,0,0,1,0,4.51l-.23,1h11.51L616,26Z"/><path class="cls-1" d="M586.68,4.63V16.15l1-.23a10.24,10.24,0,0,1,4.51,0l1,.23V4.63L590,0Z"/><path class="cls-1" d="M598.71,31.55a10.44,10.44,0,0,1-3.19,3.19l-.9.58,8.55,8.55,4.66-4.66-8.55-8.55Z"/><path class="cls-1" d="M581.24,31.55l-.57-.89-8.55,8.55,4.65,4.66,8.56-8.55-.9-.58A10.33,10.33,0,0,1,581.24,31.55Z"/><path class="cls-1" d="M590,36.36a10.58,10.58,0,0,1-2.26-.25l-1-.23V47.39L590,52l3.28-4.64V35.88l-1,.23A10.14,10.14,0,0,1,590,36.36Z"/><path class="cls-1" d="M572.12,12.81l8.55,8.55.57-.89a10.44,10.44,0,0,1,3.19-3.19l.9-.57-8.55-8.55Z"/><path class="cls-1" d="M579.88,28.27a10.23,10.23,0,0,1-.25-2.26,10.08,10.08,0,0,1,.25-2.25l.23-1H568.6L564,26l4.64,3.29h11.51Z"/><path class="cls-2" d="M2.39,69.65V32.38H18.54V25.77h7.71v6.61H42.59V69.65H35.07V66.71H9.91v2.94ZM9.91,39.36v7h8.63v-7Zm0,13.77v7h8.63v-7ZM35.07,39.36H26.25v7h8.82ZM26.25,53.13v7h8.82v-7Z"/><path class="cls-2" d="M47,43.21H91.8v8.26H47Z"/><path class="cls-2" d="M106.12,69.83H98.77V50a36.3,36.3,0,0,1-2.38,3.49,11.08,11.08,0,0,1-.92,1.1c-.49-3.54-1-6.85-1.65-9.91a75.81,75.81,0,0,0,8.26-19.09l7.34,2.2a65.2,65.2,0,0,1-3.3,8.81Zm22.21-28.64,7.71,2q-3.3,9.36-6.24,18.36h8.81v6.61h-31V61.57h14.68Q125.95,49.83,128.33,41.19Zm-9.54-15.42h8.07v7.16h11v7H108.14v-7h10.65Zm-2,15.42c.24,1,.67,2.39,1.28,4.23,1.1,2.93,2.39,7.16,3.86,12.66l-7.35,2.21q-2.2-9.18-4.77-17.08Z"/><path class="cls-2" d="M168.91,25.77l7,.37a39.55,39.55,0,0,1-1.47,6.06h11.2v7.16H183Q181.95,50,178.27,57a35.18,35.18,0,0,0,7.53,5.88q-1.29,2-4,6.61a46.55,46.55,0,0,1-7.53-6.61q-3.49,3.3-8.44,7.16A40.19,40.19,0,0,0,161,64.33,36.55,36.55,0,0,0,170.19,57a46.78,46.78,0,0,1-2.75-8.26,8.68,8.68,0,0,1-.74,1.1,4,4,0,0,1-.73,1.29c-.25-.74-.74-1.9-1.47-3.49s-1.29-2.69-1.65-3.31h-4a22.39,22.39,0,0,1-1.84,2h5.88v5.14L158.44,55l6.24-.55.19,5.88-7.16.73v2c.12,3.79-1.6,5.81-5.14,6.06h-2.76c-1.83.12-3.18.18-4,.18-.24-1.35-.67-3.18-1.28-5.51,1.71.13,3.3.19,4.77.19a1.82,1.82,0,0,0,1.84-2v-.37l-9.37.74-.36-5.88,2-.18a54.26,54.26,0,0,0-2.76-4.78,25,25,0,0,0,3.67-2V46.33h4.59c.25-.24.68-.61,1.29-1.1a10.88,10.88,0,0,0,1.1-.92h-9.73V38.44h7V35.87H143.2V30.18h5.33V25.77h6.61v4.41h4.77v3.3a38.92,38.92,0,0,1,2-3.85l5.14,2.57a49.44,49.44,0,0,1-3.86,6.24h.92v2.94A54.27,54.27,0,0,0,168.91,25.77ZM155,51.66h-4c-1.83,1.47-3.85,2.93-6,4.4l6.24-.55v-.92Zm1.47-13.22.37-.37c.37-.49.85-1.22,1.47-2.2h-3.12v2.57Zm15.61.92a.75.75,0,0,1-.37.73,35.08,35.08,0,0,0,2.57,10.28,31.63,31.63,0,0,0,2.57-11Z"/><path class="cls-2" d="M201.77,26.32a5.84,5.84,0,0,0-.37,1.29,11.37,11.37,0,0,1-.73,2.2h5V46.52h-9.91v3.3h10.65V69.1H200.3V66.71h-4.59v2.76h-6.06V29.81h4.41c.12-.49.24-1.1.37-1.84.24-1,.42-1.71.55-2.2Zm-6.06,9.55v4.77h3.86V35.87ZM200.3,55.7h-4.59v5.5h4.59Zm6.79-28.28h25.52v6.43h-9.73v3.67h8.63v20.2c.12,3.42-1.16,5.2-3.85,5.32-1.23.12-2.45.18-3.68.18-.12-.85-.36-2.2-.73-4a5.72,5.72,0,0,0-.37-1.28V69.65h-6.61V43.76h-2.38V63.22H208V37.52h8.26V33.85h-9.18Zm18.55,16.34h-2.76V57.17h1.66c.73,0,1.1-.49,1.1-1.47Z"/><path class="cls-2" d="M265.66,50.74,260,56.06,249.14,44.5l5.32-4.78Z"/><path class="cls-2" d="M282,43.21h44.8v8.26H282Z"/><path class="cls-2" d="M330.65,27.06h19.28v17.8H337.26V69.47h-6.61ZM337.26,32v2.21h6.43V32Zm0,8.08h6.43v-2.2h-6.43Zm25,6.61V63.59h1.1a2,2,0,0,0,2.21-2.2V44.86H353.05V27.06h19.09V62.67q.38,6.61-6.05,6.61c-1.6.12-3.62.19-6.06.19-.13-.49-.31-1.35-.55-2.57-.13-.74-.25-1.35-.37-1.84H340.57V46.7ZM347,51.47v2.39h8.63V51.47Zm0,9.18h8.63V58.27H347ZM359.11,32v2.21h6.43V32Zm0,5.88v2.2h6.43v-2.2Z"/><path class="cls-2" d="M376.18,56.43H397.3l2.75-2h-14.5v-5h25.88v4.41l-4.22,2.57h13.4v5.51H404.09v1.83q0,5.32-5.69,5.51h-4.59c-2.45.12-4.16.19-5.14.19a35.87,35.87,0,0,0-1.29-5.33,60.2,60.2,0,0,0,6.8.19c1.71,0,2.5-.62,2.38-1.84v-.55H376.18Zm25.71-31.21L405,28a31.25,31.25,0,0,0-2.94,2.21q1.29.74,2.94,1.83l-1.84,2.21L405,35.87a11.25,11.25,0,0,1-1.47,1.1,10.18,10.18,0,0,1-1.47,1.28,30.83,30.83,0,0,0,3.31,2L403,43.21h8.08V41.38h-5.33V37.89h5.51V36.24h-5.51V32.75h5.69V30.91H405V26.5h13.4l-.92,16.71h2.39v9.55h-6.61v-5H383.71v5H377.1V43.21h2l-.73-16q7.71-1.11,11.75-2l1.65,5.14c-1.72.37-3.86.73-6.43,1.1v1.29h5.69v3.49h-5.5v1.65h5.5v3.49h-5.32v1.83h7.71a9.07,9.07,0,0,0-.73-1.1,11,11,0,0,0-1.47-2.2c1.34-.61,2.45-1.16,3.3-1.66l-1.65-1.1c-.49-.36-.92-.67-1.28-.91l1.65-1.66a13.91,13.91,0,0,1-2-2.57,13.63,13.63,0,0,1,1.83-.92,8.36,8.36,0,0,1,1.66-.91c-.37-.25-.86-.61-1.47-1.1a16.24,16.24,0,0,1-1.65-.92L394,25.4a24.8,24.8,0,0,1,3.49,2,7.56,7.56,0,0,0,.92.55,18.23,18.23,0,0,1,1.83-1.47C401,25.89,401.52,25.47,401.89,25.22ZM398.4,40.83a41.54,41.54,0,0,1-3.86,2.38h7a16.26,16.26,0,0,0-1.84-1.47A6.85,6.85,0,0,1,398.4,40.83Zm0-8.08c-.62.36-1.53.86-2.76,1.47a16.54,16.54,0,0,1,1.84,1.1,9.13,9.13,0,0,0,.92.55,4.49,4.49,0,0,0,1.47-1.1,6.53,6.53,0,0,0,.73-.55,4.34,4.34,0,0,0-1.1-.74A8,8,0,0,0,398.4,32.75Z"/><path class="cls-2" d="M427.59,25.59h7v8.08h3.67v6.42h-3.67v4.77l5.5,4.23-3.3,6.06-2.2-2.21V69.65h-7V54a71,71,0,0,1-3.49,6.8c-.12-.61-.25-1.66-.37-3.12q-.74-5-.91-7.16a66,66,0,0,0,4.77-10.47h-4.41V33.67h4.41Zm20.56,21.48a29.28,29.28,0,0,0,4.23,7.34,21.17,21.17,0,0,0,3.85-7.34l6.43,2.2A34.83,34.83,0,0,1,457.52,59a40.69,40.69,0,0,0,10.28,4,1.94,1.94,0,0,0-.37.55,52.39,52.39,0,0,0-3.86,5.69A87.82,87.82,0,0,1,452.38,64a52.26,52.26,0,0,1-11.94,5.69c-1.35-2.08-2.75-4.1-4.22-6.06a41.69,41.69,0,0,0,11-4.59,40.8,40.8,0,0,1-5.14-9.18Zm-11-2.57A44,44,0,0,0,446,37.89h-7V31.28h10.47V25.59h6.79v5.69h10.65v6.61h-7.71l1.65,1.1q3.12,2.2,7,5.14l-4,5.32a30.63,30.63,0,0,0-2.39-2q-4.77-3.66-7.71-5.69l3.49-3.85H448l3.85,3.67a97.9,97.9,0,0,1-10.46,8.08C440,47.93,438.61,46.21,437.14,44.5Z"/><path class="cls-2" d="M471.65,27.06h19.46V43.4h-13V69.47h-6.43Zm6.43,4.77v1.65h6.61V31.83Zm0,7.34h6.61V37.34h-6.61Zm2.75,6.06h22.95v5.14h-3.12v3.12h4.59v5.33h-4.59v5h3.49a2.27,2.27,0,0,0,2.57-2.57V43.4H493.87V27.06h19.27V62.31q.2,6.6-6.24,6.79-2.2.18-6.24.18a5.92,5.92,0,0,0-.37-1.47,13.21,13.21,0,0,0-.36-1.47h-5.51V58.82h-4.59q0,4.4-5.14,8.63a9.41,9.41,0,0,1-1.29-.92,15.1,15.1,0,0,0-4.22-2.2q4-3.12,4.59-5.51h-4.22V53.49h4.59V50.37h-3.31Zm9.37,5.14v3.12h4.22V50.37Zm9.91-18.54v1.65h6.61V31.83Zm0,5.51v1.83h6.61V37.34Z"/><path class="cls-2" d="M521.59,58.63l-5.14-2.75q2-8.07,3.49-16h-2.76V33.3H521q.36-3.85.92-7.53l6.42.55-1.28,7h9v6.42Q535.36,52,532.24,57.9l4,3.85-5,4.78-2.94-2.94a81.23,81.23,0,0,1-7.16,6.24c-.49-.61-1.41-1.65-2.75-3.12a21.43,21.43,0,0,1-1.84-2,32.84,32.84,0,0,0,7.16-6.24L522.14,57A13.24,13.24,0,0,1,521.59,58.63Zm7.89-18.72H526a103.64,103.64,0,0,1-2,10.28l3.12,2.94A48.28,48.28,0,0,0,529.48,39.91Zm25.71-8.63q3.12,5.14,7.34,13l-6.24,3.31-.55-1.1a13.08,13.08,0,0,0-.92-1.84q-12.3.74-18,1.47l-.55-6.61h2.2c.61-1.34,1.65-3.86,3.12-7.53l2.94-6.61,7.34,3.12a68.93,68.93,0,0,0-3.67,6.06q-1.83,3.14-2.75,4.59a56,56,0,0,0,6.42-.36l-1.1-2.21a21.51,21.51,0,0,0-1.28-2.75ZM544,69.47h-7V48.54h22.58V69.47h-7V67.26H544Zm0-14.32V61h8.63V55.15Z"/><path class="cls-2" d="M0,99.61H44.8v8.26H0Z"/><path class="cls-2" d="M58.75,103.47l5,4.77a9.06,9.06,0,0,0-1.29,1.1,3.81,3.81,0,0,1-.92.74h3.68c1.46.12,2.14-.61,2-2.21V103.1h-20V96.49h6.25V85.29h7.16v11.2H67.2V82.17h7.34v4.41H88.12v6.24H74.54v3.67H91.61v6.61H74.54v7A7.88,7.88,0,0,1,74,113.2a31.93,31.93,0,0,0,8.63-8.08l6.24,3.49q-9.92,15.06-39.29,17.62A34.46,34.46,0,0,0,47,119.81Q61,118.7,67.2,116.32H62.79c-.49-2.32-1-4.41-1.47-6.24A65.86,65.86,0,0,1,52,116.69c-.49-.74-1.47-2.08-2.94-4-.49-.61-.86-1-1.1-1.29A66.14,66.14,0,0,0,58.75,103.47Z"/><path class="cls-2" d="M94,99.61h44.8v8.26H94Z"/><path class="cls-2" d="M152.75,103.47l5,4.77a9.06,9.06,0,0,0-1.29,1.1,3.81,3.81,0,0,1-.92.74h3.68c1.46.12,2.14-.61,2-2.21V103.1h-20V96.49h6.25V85.29h7.16v11.2h6.61V82.17h7.34v4.41h13.58v6.24H168.54v3.67h17.07v6.61H168.54v7a7.88,7.88,0,0,1-.55,3.12,31.93,31.93,0,0,0,8.63-8.08l6.24,3.49q-9.92,15.06-39.29,17.62a34.46,34.46,0,0,0-2.57-6.42q14-1.11,20.2-3.49h-4.41c-.49-2.32-1-4.41-1.47-6.24a65.86,65.86,0,0,1-9.36,6.61c-.49-.74-1.47-2.08-2.94-4-.49-.61-.86-1-1.1-1.29A66.14,66.14,0,0,0,152.75,103.47Z"/><path class="cls-2" d="M212.79,82l7.52.92q-.74,2.93-1.65,5.69h13.59v7h-2.39q-1.11,11.39-5.51,18a26.2,26.2,0,0,0,8.63,5.5,66.16,66.16,0,0,0-4.77,6.61,75.25,75.25,0,0,1-8.63-6.42q-4.41,3.3-10.65,7.16c-1.72-2.57-3.06-4.47-4-5.69q-8.08,1.83-15.79,4l-1.83-7.16a6.59,6.59,0,0,0,2-.36V99.43h10.09v-7.9H188.73v-7h18V98.14A56.25,56.25,0,0,0,212.79,82Zm-16.34,24.23v9.55q4.58-.92,10.28-2.39v5.51c3.91-2.08,6.61-3.92,8.07-5.51a41.1,41.1,0,0,1-3.67-9c-.12.24-.36.67-.73,1.28s-.68.92-.92,1.29l-2.75-4.78v4Zm19.46-10.65a44.12,44.12,0,0,0,3.67,11.94,31.2,31.2,0,0,0,3.49-11.94Z"/><path class="cls-2" d="M265.48,100.71l-.55-4.4h.91a5.29,5.29,0,0,1,1.11-.19c.48-.48,1.4-1.53,2.75-3.12q-1.29,1.65.55-.55A20.75,20.75,0,0,1,268.41,91a34.78,34.78,0,0,1-2.93-2V90.8H250.24V89.15l-3.31,3.3-1.83,1.84,3.49-1.1q1.65,4.95,2.38,7.34l-3.85,1.1-.37-1.1-1.29.18v8.08h-4.58V100.9c-2.58.24-4.23.43-5,.55l-.55-4.59h2a35.29,35.29,0,0,0,3.12-3.67c-1.72-1.35-3.61-2.76-5.69-4.23l2.93-3.67,1.11.92q1.45-2.38,2.57-4l4.95,2c-.61.61-1.47,1.59-2.57,2.94a15.5,15.5,0,0,1-1.28,1.65,2.74,2.74,0,0,0,1.1.73c.85-1.1,1.65-2.08,2.39-2.93l4.22,2.2V87.13h15.24l2-2.57,1.1.92a23.4,23.4,0,0,0,2.38-4l5,2a24.84,24.84,0,0,0-1.83,2.2c-1,1.1-1.66,1.9-2,2.39l1.1.73a21.91,21.91,0,0,0,1.65-2,3.72,3.72,0,0,0,.73-.92L280,88.23c-2.08,2.08-3.86,3.92-5.32,5.51l3.48-1.1q1.47,4.39,2.39,7.34l-3.85,1.1-.19-1.28-1.28.18v8.63h-4.78v-8.26Zm11,9.73V115h-3.67a42.44,42.44,0,0,1-6.61,4.59q5.51.73,13.59,1.11a24.33,24.33,0,0,0-2.21,4.22,7.39,7.39,0,0,1-.36.92q-13.77-1.11-19.65-2.76a114,114,0,0,1-19.28,3.31L237,123.85q-.74-1.65-1.29-2.76A121.28,121.28,0,0,0,249,120c-1.22-.73-2.51-1.59-3.85-2.57a48.33,48.33,0,0,1-5.69,3.31l-2.76-3.49a6.83,6.83,0,0,0-.92-1.29,37.83,37.83,0,0,0,11.39-7.34l7,.55-1.28,1.28Zm-36.17-8.07a59.67,59.67,0,0,1-.73,6.24l-3.67-.55c.12-.74.3-1.72.55-2.94s.24-2.2.37-2.94Zm5.51-5.7-.73-2.2-2.39,2.39A29,29,0,0,1,245.83,96.67Zm3.12,5a28,28,0,0,1,1.66,5.88l-3.49.73c-.13-.61-.31-1.53-.55-2.75-.13-.74-.37-1.84-.74-3.31Zm2.21-9.73h13.4V95h-13.4Zm0,4.41h13.4v3.12h-13.4Zm0,11.93v-7.71h13.4v7.71Zm0,6.79a28.77,28.77,0,0,0,6.24,2.76,35.72,35.72,0,0,0,6.24-2.76Zm.55-32.12h12.67v2.93H251.71Zm4.4,20.74v1.47h3.49v-1.47Zm13.77-1.83c-.12,1.46-.36,3.55-.73,6.24l-3.67-.74q.18-.73.36-1.83c.25-1.59.43-2.94.55-4Zm5.51-5.88-.73-2.2-2.39,2.38a11.14,11.14,0,0,0,1.65-.18Zm3.12,5a27.35,27.35,0,0,1,1.65,5.87l-3.3.74c-.25-1.35-.61-3-1.1-5a2.77,2.77,0,0,1-.37-1.1Z"/><path class="cls-2" d="M287.88,126.05V107.32l-1.66.55a13.48,13.48,0,0,0-1.65.37c-.25-.61-.67-1.59-1.28-2.94a19.66,19.66,0,0,1-1.47-3.12q10.28-2,15.05-5h-13.4V91.72h17.44V89.33h-6.79c-3.19.12-5.57.18-7.16.18a10.28,10.28,0,0,1-.37-1.83c-.25-1.47-.49-2.69-.73-3.67q23.49-.37,36.16-.92l.92,5.69q-7.35.38-15.05.37v2.57h17.62v5.51H311.74q4.77,2.92,15.06,4.59c-.49,1.1-1.1,2.44-1.84,4-.37.86-.67,1.54-.92,2a23.68,23.68,0,0,1-3.12-.91v19.09h-7V124.4h-19.1v1.65Zm27.9-20.75a28.83,28.83,0,0,1-7.89-4.59v3.68h-7v-3.68a34.59,34.59,0,0,1-7.71,4.59Zm-20.93,5.33v2H314v-2Zm0,6.61v2.2H314v-2.2Z"/><path class="cls-2" d="M335.24,94.66a90.82,90.82,0,0,1,5,8.44l-6.61,3.31c-1.23-2.58-2.75-5.45-4.59-8.63ZM336.53,82q2,3.3,4.4,7.71V86.21h5.33v-4h6.61v4h6.42v-4h6.8v4h5.32V91.9h-5.32v3.31h7v5.69h-7.71q2.76,3.85,8.63,5.69-.74,1.47-2,4.59A11.54,11.54,0,0,1,371,113a32.61,32.61,0,0,1-5.87-3.48v7.52H349.56v.55c-.12,1.72.74,2.51,2.57,2.39h10.65a2.71,2.71,0,0,0,2.94-2.2,30.22,30.22,0,0,0,.55-4.22,5.67,5.67,0,0,0,1.28.36q1.47.38,4.59,1.47a8,8,0,0,1-.18,1.47,20.83,20.83,0,0,1-.73,4c-.62,2.94-3.06,4.34-7.35,4.22H349.2q-6.06,0-6.06-5.69v-7a31.25,31.25,0,0,1-2.94,2.21,5.06,5.06,0,0,0-.18-1.1,8.29,8.29,0,0,0-.37-.92q-.56,2.38-1.47,6.61c-.73,2.81-1.29,5-1.65,6.61l-7-1.84q2.38-8.44,3.86-15.42l5.32,1.47a5.76,5.76,0,0,1-.37-1.1l-.55-1.11a23.87,23.87,0,0,0,9-7h-7.35V95.21h6.8V91.9h-5.33V90.25l-6.42,3.12c-.49-.86-1.17-2.08-2-3.67q-1.65-3.12-2.57-4.78Zm13,27.35v2.76h9.18v-2.76Zm4.59-8.44a8,8,0,0,1-.73,1.1l-1.65,2.2h8.44a22,22,0,0,1-2-3.3Zm-1.28-9v3.31h6.42V91.9Z"/><path class="cls-2" d="M403.91,82.17l7,.37a39.55,39.55,0,0,1-1.47,6.06h11.2v7.16H418q-1.1,10.65-4.77,17.62a35.18,35.18,0,0,0,7.53,5.88c-.86,1.34-2.21,3.55-4,6.61a46.55,46.55,0,0,1-7.53-6.61q-3.5,3.3-8.44,7.16a40.19,40.19,0,0,0-4.78-5.69,36.55,36.55,0,0,0,9.18-7.35,46.78,46.78,0,0,1-2.75-8.26,8.68,8.68,0,0,1-.74,1.1,4.06,4.06,0,0,1-.73,1.29c-.25-.74-.74-1.9-1.47-3.49s-1.29-2.69-1.65-3.31h-4a22.39,22.39,0,0,1-1.84,2h5.88v5.14l-4.41,3.49,6.24-.55.19,5.88-7.16.73v2c.12,3.79-1.6,5.81-5.14,6.06h-2.76c-1.83.12-3.18.18-4,.18-.24-1.35-.67-3.18-1.28-5.51,1.71.13,3.3.19,4.77.19a1.82,1.82,0,0,0,1.84-2V118l-9.37.74-.36-5.88,2-.18a54.26,54.26,0,0,0-2.76-4.78,25,25,0,0,0,3.67-2v-3.12h4.59c.25-.24.68-.61,1.29-1.1a10.88,10.88,0,0,0,1.1-.92h-9.73V94.84h7V92.27H378.2V86.58h5.33V82.17h6.61v4.41h4.77v3.3a38.92,38.92,0,0,1,2-3.85l5.14,2.57a49.44,49.44,0,0,1-3.86,6.24h.92v2.94A54.27,54.27,0,0,0,403.91,82.17Zm-14,25.89h-4q-2.75,2.2-6.05,4.4l6.24-.55V111Zm1.47-13.22.37-.37c.37-.49.85-1.22,1.47-2.2h-3.12v2.57Zm15.61.92a.75.75,0,0,1-.37.73,35.08,35.08,0,0,0,2.57,10.28,31.63,31.63,0,0,0,2.57-11Z"/><path class="cls-2" d="M435.12,125.87h-7.53V101.08h33.78l-2.57-1.83q-11.57.18-31.94.73l-.74-5.32H430q1.65-1.47,3.67-3.31h-10.1V85.66h18.18V82h7.34v3.67h18.18v5.69h-9.18l1.65,1.1q3.3,2.2,7.16,4.59l-4.59,4h1.1v17.81q.36,6.61-7,6.79h-9.18l-1.46-5.51q2.93.19,7.34.19c1.84.12,2.69-.43,2.57-1.65H435.12Zm0-20v2h20.74v-2Zm0,6.43v2h20.74v-2ZM439,94.47q8.82,0,13-.18l-4-2.94h-5.33Z"/></g></g></svg>