<svg xmlns="http://www.w3.org/2000/svg" viewBox="0 0 479.88 101.38"><defs><style>.cls-1{fill:#fd0;}.cls-2{fill:#fff;}</style></defs><g id="Layer_2" data-name="Layer 2"><g id="Layer_1-2" data-name="Layer 1"><path class="cls-1" d="M462.6,52.29l.57.9,8.55-8.55L467.06,40l-8.55,8.55.9.57A10.55,10.55,0,0,1,462.6,52.29Z"/><path class="cls-1" d="M475.24,54.54H463.73l.23,1a10.3,10.3,0,0,1,0,4.51l-.23,1h11.51l4.64-3.29Z"/><path class="cls-1" d="M450.57,36.46V48l1-.23a10.55,10.55,0,0,1,4.51,0l1,.23V36.46l-3.29-4.63Z"/><path class="cls-1" d="M462.6,63.38a10.33,10.33,0,0,1-3.19,3.19l-.9.57,8.55,8.55L471.72,71l-8.55-8.55Z"/><path class="cls-1" d="M445.13,63.38l-.57-.9L436,71l4.66,4.66,8.55-8.55-.9-.57A10.55,10.55,0,0,1,445.13,63.38Z"/><path class="cls-1" d="M453.88,68.18a10.73,10.73,0,0,1-2.27-.24l-1-.24V79.21l3.31,4.64,3.28-4.64V67.7l-1,.24A10.66,10.66,0,0,1,453.88,68.18Z"/><path class="cls-1" d="M436,44.64l8.55,8.55.57-.9a10.78,10.78,0,0,1,3.19-3.19l.9-.57L440.67,40Z"/><path class="cls-1" d="M443.77,60.1a10.23,10.23,0,0,1-.25-2.26,10.1,10.1,0,0,1,.25-2.26l.23-1H432.49l-4.64,3.3,4.64,3.29H444Z"/><path class="cls-2" d="M.37,18.18H45.16v8.26H.37Z"/><path class="cls-2" d="M49.57,23.32l6.24.55a45.4,45.4,0,0,1-.36,8.44,8,8,0,0,0,2.93,3.12V21.66H47.73V15.61h8.08v-4H49V5.69h6.79V.55h7V5.69h6.06v5.88H62.79v4h7.34v6.05H65v5h4.78V32.5H65v5.14a32.31,32.31,0,0,0,3.49.18q7.71.18,23.68-.18a32.08,32.08,0,0,1-.91,3.12,28.6,28.6,0,0,1-.92,3.12H68.48q-11.21,0-14.14-4.59A38.24,38.24,0,0,1,52.14,45q-2.2-2.2-5-4.77Q49.76,35.44,49.57,23.32Zm36-.92q4,1.29,6.43,1.83c-.25,1.84-.61,3.92-1.1,6.25q-.91,6.06-7.34,5.69H78.21q-7.35.18-7.16-7.16V2.94H89.41V21.11H78v6.25c-.13,1.71.67,2.51,2.38,2.38h2a2.14,2.14,0,0,0,2.39-2.2A32,32,0,0,0,85.55,22.4ZM82.62,9.55H78V14.5h4.59Z"/><path class="cls-2" d="M101.16,43.88v-7a47.58,47.58,0,0,1-3.3,5.51c-.37-.49-1-1.22-1.84-2.2-1-1.23-1.65-2.08-2-2.57q4.41-5.52,4-17.26V16.16l-1.65.91c-.74-2-1.47-4-2.21-6.24Q103,6.24,106.67.73l7.53.56c-.13.24-.31.61-.56,1.1l-.36.36c3.42,2.21,6.61,4.41,9.54,6.61V5.51h5.88V33.6h-5.88V11l-2.75,3.48h.18V29.93H103.36L103,31.58h18v12.3h-5.88V42.41h-8.26v1.47Zm14.5-31.4h-12.3l-1.65,1.11c-.49.36-.92.67-1.28.91h19.09c-1.23-1.1-2.51-2.2-3.86-3.3ZM104.1,24.05l-.19,1.65H114.2V24.05Zm0-5.32v1.65h10.1V18.73Zm2.75,17.07v2.39h8.26V35.8ZM110,6.61a7.59,7.59,0,0,1-1.47,1.47l-.73.73h5C111.87,8.08,111,7.34,110,6.61ZM131.09.73h6.42V37.09q.56,6.78-5.87,6.79-2,.18-6.61.18-.73-3.48-1.29-6.24h5.14c1.59.12,2.33-.61,2.21-2.2Z"/><path class="cls-2" d="M171.84,19.28l-.55-4.41h.92a5.15,5.15,0,0,1,1.1-.18q.74-.74,2.76-3.12c-.86,1.1-.68.91.55-.55-.37-.25-1-.74-1.84-1.47-1.35-.86-2.33-1.53-2.94-2V9.36H156.61V7.71L153.3,11l-1.84,1.83,3.49-1.1q1.65,5,2.39,7.34l-3.86,1.11-.36-1.11-1.29.19v8.08h-4.59v-7.9c-2.57.25-4.22.43-5,.55l-.56-4.59h2a35.27,35.27,0,0,0,3.13-3.67c-1.72-1.35-3.62-2.75-5.7-4.22l2.94-3.67,1.1.91c1-1.59,1.84-2.93,2.57-4l5,2c-.61.62-1.47,1.6-2.57,2.94a13.94,13.94,0,0,1-1.29,1.65,2.87,2.87,0,0,0,1.11.74c.85-1.1,1.65-2.08,2.38-2.94l4.23,2.2V5.69h15.23l2-2.57L175,4a23.1,23.1,0,0,0,2.39-4l5,2a28.12,28.12,0,0,0-1.84,2.2c-1,1.1-1.65,1.9-2,2.39l1.1.73a19.13,19.13,0,0,0,1.66-2,4,4,0,0,0,.73-.91l4.41,2.38c-2.08,2.09-3.86,3.92-5.33,5.51l3.49-1.1c1,2.94,1.77,5.39,2.39,7.34L183,19.64l-.18-1.28-1.29.18v8.63H176.8V18.91Zm11,9.73V33.6h-3.67a43.62,43.62,0,0,1-6.61,4.59q5.5.73,13.58,1.1a25.18,25.18,0,0,0-2.2,4.22,7.28,7.28,0,0,1-.37.92Q169.82,43.34,164,41.68A114,114,0,0,1,144.67,45l-1.28-2.57c-.49-1.1-.92-2-1.29-2.75a121,121,0,0,0,13.22-1.11c-1.22-.73-2.51-1.58-3.86-2.57a45,45,0,0,1-5.69,3.31Q145,38.38,143,35.8a6.8,6.8,0,0,0-.92-1.28,38,38,0,0,0,11.38-7.35l7,.55L159.18,29Zm-36.17-8.08a62.48,62.48,0,0,1-.73,6.24l-3.67-.55c.12-.73.3-1.71.55-2.94s.24-2.2.36-2.93Zm5.51-5.69-.74-2.2-2.38,2.38A28.83,28.83,0,0,1,152.2,15.24Zm3.12,5A27.17,27.17,0,0,1,157,26.07l-3.49.73c-.12-.61-.3-1.52-.55-2.75-.12-.73-.36-1.84-.73-3.3Zm2.2-9.74h13.41v3.13H157.52Zm0,4.41h13.41V18H157.52Zm0,11.93V19.09h13.41V26.8Zm0,6.8a29.06,29.06,0,0,0,6.25,2.75A35.68,35.68,0,0,0,170,33.6Zm.55-32.13h12.67V4.41H158.07Zm4.41,20.74v1.47H166V22.21Zm13.77-1.83c-.12,1.47-.37,3.55-.73,6.24l-3.68-.73c.12-.49.25-1.1.37-1.84.24-1.59.43-2.94.55-4Zm5.51-5.88L181,12.3l-2.38,2.39a10.41,10.41,0,0,0,1.65-.19Zm3.12,5a27.47,27.47,0,0,1,1.65,5.88l-3.3.73c-.25-1.34-.62-3-1.11-5a2.78,2.78,0,0,1-.36-1.1Z"/><path class="cls-2" d="M194.24,44.61V25.89l-1.65.55a11.76,11.76,0,0,0-1.65.36c-.25-.61-.68-1.58-1.29-2.93a22.72,22.72,0,0,1-1.47-3.12q10.29-2,15.06-5h-13.4V10.28h17.44V7.89h-6.8q-4.77.19-7.16.19A12,12,0,0,1,193,6.24c-.25-1.47-.49-2.69-.74-3.67q23.5-.36,36.17-.92l.92,5.69q-7.35.38-15.06.37v2.57h17.63v5.51H218.11q4.77,2.94,15,4.59c-.49,1.1-1.1,2.45-1.83,4-.37.86-.68,1.53-.92,2a23.68,23.68,0,0,1-3.12-.92V44.61h-7V43H201.22v1.65Zm27.91-20.74a29.3,29.3,0,0,1-7.9-4.59V23h-7V19.28a34.59,34.59,0,0,1-7.71,4.59Zm-20.93,5.32v2h19.09v-2Zm0,6.61V38h19.09V35.8Z"/><path class="cls-2" d="M241.61,13.22a94.49,94.49,0,0,1,5,8.44L240,25q-1.85-3.86-4.59-8.63ZM242.89.55q2,3.3,4.41,7.71V4.77h5.32v-4h6.61v4h6.43v-4h6.79v4h5.33v5.69h-5.33v3.31h7v5.69h-7.71q2.75,3.86,8.63,5.69c-.49,1-1.17,2.51-2,4.59a13.29,13.29,0,0,1-.92,1.84,31.92,31.92,0,0,1-5.87-3.49v7.53H255.93v.55c-.12,1.71.73,2.51,2.57,2.38h10.65a2.71,2.71,0,0,0,2.94-2.2,31.81,31.81,0,0,0,.55-4.22,5.55,5.55,0,0,0,1.28.37q1.47.36,4.59,1.46a8,8,0,0,1-.18,1.47,19.65,19.65,0,0,1-.74,4q-.91,4.41-7.34,4.23H255.56q-6.06,0-6.06-5.7V31a29.79,29.79,0,0,1-2.93,2.2,5.33,5.33,0,0,0-.19-1.1,7.39,7.39,0,0,0-.36-.92c-.37,1.59-.86,3.8-1.47,6.61s-1.29,5-1.66,6.61l-7-1.84q2.39-8.43,3.85-15.42l5.33,1.47a4.94,4.94,0,0,1-.37-1.1c-.25-.49-.43-.86-.55-1.1a23.9,23.9,0,0,0,9-7h-7.35V13.77h6.79V10.46H247.3V8.81l-6.42,3.12c-.5-.85-1.17-2.08-2-3.67-1.11-2.08-2-3.67-2.57-4.77Zm13,27.36v2.75h9.18V27.91Zm4.59-8.45a8.34,8.34,0,0,1-.73,1.1l-1.66,2.21h8.45a20.81,20.81,0,0,1-2-3.31Zm-1.29-9v3.31h6.43V10.46Z"/><path class="cls-2" d="M310.27.73l7,.37a40.76,40.76,0,0,1-1.47,6.06H327v7.16h-2.57Q323.32,25,319.64,32a34.83,34.83,0,0,0,7.52,5.87q-1.28,2-4,6.61a45.56,45.56,0,0,1-7.52-6.61q-3.5,3.3-8.45,7.16a40.78,40.78,0,0,0-4.77-5.69A36.49,36.49,0,0,0,311.56,32a46.93,46.93,0,0,1-2.76-8.27,7.38,7.38,0,0,1-.73,1.11,4.07,4.07,0,0,1-.73,1.28c-.25-.73-.74-1.9-1.47-3.49s-1.29-2.69-1.66-3.3h-4c-.49.61-1.11,1.28-1.84,2h5.87v5.14l-4.4,3.49,6.24-.55.18,5.87-7.16.73v2q.18,5.7-5.14,6.06h-2.75c-1.84.12-3.18.19-4,.19-.25-1.35-.67-3.19-1.28-5.51q2.56.18,4.77.18a1.81,1.81,0,0,0,1.83-2v-.36l-9.36.73-.37-5.88,2-.18A50.25,50.25,0,0,0,282,26.44a25.94,25.94,0,0,0,3.67-2V21.3h4.59a16.06,16.06,0,0,1,1.29-1.1,14.07,14.07,0,0,0,1.1-.92h-9.73V13.4h7V10.83h-5.32V5.14h5.32V.73h6.61V5.14h4.78V8.45a36.09,36.09,0,0,1,2-3.86l5.14,2.57a49.16,49.16,0,0,1-3.86,6.24h.92v2.94A54.59,54.59,0,0,0,310.27.73ZM296.32,26.62h-4q-2.75,2.2-6.06,4.41l6.24-.55v-.92Zm1.47-13.22.37-.36c.36-.49.85-1.23,1.46-2.21H296.5V13.4Zm15.6.92a.73.73,0,0,1-.36.73,34.76,34.76,0,0,0,2.57,10.29,32,32,0,0,0,2.57-11Z"/><path class="cls-2" d="M341.48,44.43H334V19.64h33.78l-2.57-1.83q-11.57.18-31.95.73l-.73-5.32h3.85c1.11-1,2.33-2.08,3.68-3.31h-10.1V4.22h18.17V.55h7.35V4.22h18.17V9.91h-9.18L366.09,11c2.2,1.46,4.59,3,7.16,4.59l-4.59,4h1.1V37.45q.36,6.61-7,6.8H353.6l-1.47-5.51q2.94.18,7.35.18c1.83.13,2.69-.43,2.57-1.65H341.48Zm0-20v2h20.75v-2Zm0,6.42v2h20.75v-2ZM345.34,13q8.81,0,13-.19l-4-2.94H349Z"/><path class="cls-2" d="M26.8,88.71c.74,2.21,1.47,4.53,2.21,7h5.14c1.71,0,2.57-.8,2.57-2.39a49.56,49.56,0,0,0,.37-6.06H9.91c-.12.13-.36.43-.73.92s-.67.68-.92.92l5.51.55q-1.29,5.15-2.94,9.91L4.59,98.26a57.37,57.37,0,0,0,3.12-8.63c-.37.37-1,1-2,1.84s-1.53,1.53-2,2A71.9,71.9,0,0,0,0,86.69Q9.18,78.8,12.85,70.35H2V64.66H9c-1.6-1.22-3.12-2.39-4.59-3.49L8.26,57c2,1.23,3.92,2.57,5.88,4l-3.31,3.67h4.22A70.11,70.11,0,0,0,16.89,57h7.53q-.93,4-2,7.71H39.11l-1.29,8.45h3.86l-1.11,8.44h3.49q-.36,9.18-.73,12.85c-.13,4-2.14,6.12-6.06,6.25-1.23.12-3.67.18-7.34.18l-1.11-4.41-5.14.92q-.36-1.83-1.47-6.61a5.67,5.67,0,0,0-.36-1.28ZM16.34,78.8a25.82,25.82,0,0,1-1.84,2.75H33.41L34,78.8Zm3.49,10.46c.73,3.31,1.28,6.18,1.65,8.63l-5.87.55c-.13-1.47-.37-3.67-.74-6.61a19.82,19.82,0,0,1-.18-2.2ZM31.39,70.35h-11c-.37.86-.74,1.78-1.1,2.76H30.84ZM33.6,88c.24.61.55,1.47.92,2.57A27.33,27.33,0,0,1,36,94.22L31,95.32c-.25-.85-.74-2.32-1.47-4.4a21.56,21.56,0,0,1-.74-2.21Z"/><path class="cls-2" d="M89,73.47V79.9H76.93V86H91.8v6.79H76.93V101H69.4V92.75H48.1V86h6.06V75.68a27.34,27.34,0,0,0-2.75,2.75,24.1,24.1,0,0,1-1.29-2.57q-1.65-3.12-2.57-4.59A35.7,35.7,0,0,0,58,57l8.62.74q-1.1,1.83-2.2,3.85H90.51v6.61H76.93v5.32ZM60.4,68.15c-1.22,1.71-2.63,3.49-4.22,5.32H69.4V68.15Zm.92,11.75V86H69.4V79.9Z"/><path class="cls-2" d="M115.11,82.65h22.77v6.43h-8.26v4.41H139v6.05H113.64V95.69h-5.87v5.51h-6.61V95.69H94.73V90.18h6.43v-2H95.84V68.33h5.32v-2H95.29V60.44h5.87V57.13h6.61v3.31h5.87v5.87h-5.87v2h5.32V88.16h-5.32v2h6.43v3.31h8.62V89.08h-7.71Zm-15.42-9V76h2.76V73.66Zm0,6.79v2.39h2.76V80.45Zm9.55-6.79h-2.76V76h2.76Zm0,9.18V80.45h-2.76v2.39Zm9.91-9q2.2,3.5,4,6.61l-5.14,2a66.59,66.59,0,0,0-4.41-7.89q2.39,3.86-.36-.74a71.17,71.17,0,0,0,5.14-8.08l5,2c-.37.49-.86,1.23-1.47,2.21S120.37,72.13,119.15,73.84Zm-4.59-14.69h23.87v6.61H114.56ZM127.05,74c.48.74,1.22,1.84,2.2,3.31a20.67,20.67,0,0,0,1.84,2.94L126,82.47q-2.2-4.22-5-8.63a51,51,0,0,0,5.14-8.08l5,2c-1.6,2.57-1.9,3.06-.92,1.47C129.19,70.84,128.15,72.44,127.05,74Zm7.71,0c.24.37.73,1,1.47,2a32.06,32.06,0,0,0,2.57,3.86L134,82.47q-.74-1.09-2.2-3.86-2-3.12-2.94-4.77,2.58-3.68,5.14-8.08L138.8,68l-2.94,4.4Z"/><path class="cls-2" d="M141.37,74.58h44.79v8.26H141.37Z"/><path class="cls-2" d="M201.22,100.65h-7.34v-20q-2,2.76-4.23,5.51a50.37,50.37,0,0,1-.73-5.14c-.37-2-.62-3.42-.74-4.4a64.94,64.94,0,0,0,9.18-19.47l7.53,2.39q-1.65,4.59-3.67,9ZM202.14,72l8.26-.92q-.74-7.89-.92-14H217q0,2,.37,6.06.18,4.41.36,7l14.14-1.65.73,7.34-14.32,1.65q.92,9.38,2.94,13c.86,2.08,1.71,3,2.57,2.75,1,.13,1.59-.92,1.84-3.12a43.68,43.68,0,0,0,.91-6.06c.49.13,1.23.37,2.21.74,2.08.73,3.55,1.22,4.4,1.47A11.43,11.43,0,0,0,232.8,88q-.56,2.38-1.1,6.06-1.66,7-7.35,6.79-6.24,0-9.55-6.06-2.75-4.59-3.85-16.16l-7.9.92Zm21.11-14.32a83.86,83.86,0,0,1,7.34,5.87l-5.14,5.14a85.1,85.1,0,0,0-7-6.43Z"/><path class="cls-2" d="M256.85,68.52a11.08,11.08,0,0,0,1.1.92l1.1,1.1c.12-.37.3-1,.55-1.84s.43-1.28.55-1.65H256.3a67.07,67.07,0,0,1-6.61,10.28q-.56-2.76-.92-5.32l-2.2,2.2A76.56,76.56,0,0,1,245.83,85c.61.61,1.47,1.53,2.57,2.75s2.08,2.27,2.57,2.76l-4,5.14a18.09,18.09,0,0,0-2.75-3.49,38.48,38.48,0,0,1-5,9.18A36.07,36.07,0,0,0,235,96.61,35.74,35.74,0,0,0,240.51,79l-4.22.74q-.37-5.14-1.29-13.41l4-.91c.37,2.32.79,5.87,1.28,10.64,0-.36.06-.06.19.92v-2q.18-6.6.18-17.81h6.06v9.18l1.47-1.83,1.65,2.38a33.27,33.27,0,0,0,3.67-10.09l6.06.73a26.92,26.92,0,0,1-.92,3.67h6.61v6.25h2c.12-1.72.19-5.15.19-10.29h5.69v3.13l3.49-1.47q1.65,3.12,3.12,5.69l-4.59,2-1.29-3.12a7.8,7.8,0,0,1-.73-1.47c0,1.83-.07,3.67-.19,5.51h6.43v6h-5.88a18.86,18.86,0,0,0,7,11.2c-.61.74-1.59,2-2.94,3.86a4,4,0,0,0-.73.92q1.83,5,3.49,9.36l-5.51,1.65q-.55-1.83-2.2-6.42a34.19,34.19,0,0,1-1.47-3.86l4.59-1.28a24,24,0,0,1-5.51-8.45A25.09,25.09,0,0,1,264,90.18q-2.58-2.94-4.41-4.77A18.76,18.76,0,0,0,267,73.47h-2.57v-2A38.74,38.74,0,0,1,253,89.63l4.22.92c-.61,1.83-1.4,4.16-2.38,7l-1.1,3.31L248,99.18c.24-.62.55-1.47.91-2.57a74.83,74.83,0,0,0,2.76-7.16q-1.47-2.39-2.94-4.41l.18-.18a39.14,39.14,0,0,0,3.86-3.67,18.46,18.46,0,0,0-2.57-2.76l3.12-4.22A28.55,28.55,0,0,1,256.11,77a10.4,10.4,0,0,1,.55-.92,2,2,0,0,1,.37-.73,14.47,14.47,0,0,0-2.94-2.57Zm5.87,21.84a11.69,11.69,0,0,1,.37,1.66q.92,4.77,1.29,7.16l-5.7.55a53.1,53.1,0,0,0-1.28-9Zm6.61-.55c.49,1.6,1.22,4,2.21,7.16a12.16,12.16,0,0,0,.36,1.47l-5.51,1.1c-.49-2.57-1.22-5.56-2.2-9Z"/><path class="cls-2" d="M288.61,92q-.56,4.77-1.29,9a7.88,7.88,0,0,1-1.28-.18,25.4,25.4,0,0,0-3.67-.37q.92-4.21,1.65-8.81Zm16.16-2.21-21.3,1.11-.37-5.33,8.26-.18v-2H284v-5h7.34V76.6H284V58.42H304.4V76.6h-7.35v1.83h7.35v5h-7.35v1.83l7.9-.36c0,.73-.06,1.71-.18,2.93ZM290.63,64.29a31.67,31.67,0,0,1,1.47,4.41V63.19h-3.67V65Zm-.92,6.25c-.37-1.23-.8-2.63-1.28-4.23v5.51h3.67v-2.2Zm3.49,21.29a62,62,0,0,1,1.1,8.27l-4.59.36a19.82,19.82,0,0,0-.18-2.2q-.19-3.49-.37-6.24Zm5.14-.36c.37,1.47.85,3.42,1.47,5.87a10,10,0,0,0,.37,1.65l-4.41.55c-.12-.85-.37-2.14-.73-3.85a35.37,35.37,0,0,1-.74-4Zm-.73-27.36,2.2.92V63.19h-3.67v5.33a2,2,0,0,0,.36-.74C297,66.31,297.36,65.09,297.61,64.11Zm2.2,7.71V66.31a17,17,0,0,1-.92,2.76c-.25.73-.43,1.28-.55,1.65l-2.2-.92v2Zm3.67,18.91c.86,2.57,1.65,5,2.39,7.16l-4.23.92c-.24-.86-.67-2.27-1.28-4.22a26.47,26.47,0,0,0-.92-3.12Zm8.63-33.6h6.61v7h8.08v6.61h-8.08v6.06h6.79v24h-6.42V97.89h-6.61v2.94h-6.43v-24h6.06Zm.37,26.26v8.08h6.61V83.39Z"/><path class="cls-2" d="M354.34,69.8l-1.11,1.65a4.2,4.2,0,0,0-.73.92h21.11v6.06H356.72V82.1h14V92.75q.18,5.5-5.7,5.51h-5.87a30.38,30.38,0,0,0-1.1-5.88,34.56,34.56,0,0,0,3.67.19c1.47,0,2.14-.55,2-1.65V88h-7v13h-7.16V88h-6.79V98.26h-7V88.9c-1.22.85-2.51,1.77-3.85,2.75-.37-.86-1-2.32-1.84-4.41-.37-1-.67-1.71-.92-2.2a64.09,64.09,0,0,0,9.55-6.61h-8.26V72.37h13.95a8.31,8.31,0,0,1,.74-1.1,16.72,16.72,0,0,0,1.28-2Zm-21.12-8.44,4.23-4.23q9,2.4,15.42,4.23,6.06-2,12.3-4.41l5.32,3.86q-4.41,1.65-8.44,3.12,4,1.27,9,2.75l-3.67,5.14q-2.94-.91-8.08-2.57-4.59-1.47-6.61-2.2-7,2.2-17.62,4.77l-1.65-2.75c-.74-1.1-1.29-2-1.66-2.57l7.53-1.65c1.59-.37,2.82-.62,3.67-.74Q338.36,62.64,333.22,61.36Zm14.51,17.07c-1.11,1.1-2.27,2.33-3.49,3.67h5.32V78.43Z"/><path class="cls-2" d="M420.43,60.07V66.5q-6.06,10.27-22.77,13.22,7,0,18-.55l1.1,5.69c-1.72,0-4.1.06-7.16.18-3.31,0-5.69.06-7.16.18V88H418v4.59h-15.6v2H421v5.14H376.55V94.59h18.54v-2h-15.6V88h15.6V85.22q-4.95.19-15,.19a5.06,5.06,0,0,0-.18-1.1q-.37-1.47-1.11-4.41,11.56,0,17.81-.18a40.68,40.68,0,0,0-2-3.86c-.36-.61-.67-1.1-.92-1.47a51,51,0,0,0,5.33-.92c-.74-.85-1.41-1.65-2-2.38l4.59-2.39,2.94,3.12,1.65-.55a12.38,12.38,0,0,0-1.47-1.65A21.64,21.64,0,0,0,403.17,68l4.22-2h-5.14c-.73.61-2,1.53-3.67,2.75l-2.2,1.65c-.37-1-1-2.44-1.84-4.4a8.14,8.14,0,0,1-.73-1.47q6.06-3.68,8.26-7.71l7.53.73-1.1,1.65a4,4,0,0,0-.74.92Zm-43.7,1.65h5V57.13h7.16v4.59h4.77v6.06h-7.34v3.31a.82.82,0,0,0,.92.92h5.51V78.8h-8.26q-5.34.74-5-5.14V67.78h-2.76ZM408.13,66c.85.85,1.71,1.65,2.57,2.38.85-.73,1.71-1.53,2.57-2.38Z"/></g></g></svg>